<svg id="cf176699-162d-445b-bd86-cf25114096c8" data-name="Layer 1" xmlns="http://www.w3.org/2000/svg" viewBox="0 0 639.17 141.5">
  <title>logo</title>
  <g id="6c048c89-7d2d-4064-a7a8-fde947309283" data-name="English">
    <g>
      <path d="M435.16,106.64a7.05,7.05,0,0,1-5.1,2.14c-4.05,0-6.93-3.28-6.93-7.33s2.88-7.34,6.93-7.34a7,7,0,0,1,5.08,2.13l-1,1a5.74,5.74,0,0,0-4.12-1.72c-3.3,0-5.56,2.67-5.56,6s2.26,6,5.56,6a5.77,5.77,0,0,0,4.15-1.75Z" transform="translate(-20.42 -21.63)" fill="#404041"/>
      <path d="M436.79,103.69a5.06,5.06,0,0,1,10.12,0,5.06,5.06,0,1,1-10.12,0Zm8.75,0a3.69,3.69,0,0,0-7.38,0,3.69,3.69,0,1,0,7.38,0Z" transform="translate(-20.42 -21.63)" fill="#404041"/>
      <path d="M451,108.57h-1.39V98.88H451v1.6a3.6,3.6,0,0,1,3.22-1.81c2.36,0,3.76,1.62,3.73,4.25v5.65h-1.39v-5.65c0-1.78-.85-2.88-2.34-2.88a3,3,0,0,0-3.22,3.24Z" transform="translate(-20.42 -21.63)" fill="#404041"/>
      <path d="M461.62,105.79a2.06,2.06,0,0,0,2.28,1.68c1.24,0,2.05-.62,2.05-1.54,0-.64-.37-1.24-1.39-1.49l-1.35-.31c-1.2-.29-2.69-.89-2.44-3.16a3,3,0,0,1,3.15-2.3,2.81,2.81,0,0,1,3.05,2.51h-1.35a1.63,1.63,0,0,0-1.7-1.18,1.69,1.69,0,0,0-1.8,1.18c-.21,1.12.74,1.46,1.43,1.62l1.32.31c1.83.44,2.45,1.5,2.45,2.82,0,1.68-1.53,2.85-3.55,2.85a3.24,3.24,0,0,1-3.38-3Z" transform="translate(-20.42 -21.63)" fill="#404041"/>
      <path d="M469.29,103.69a5.06,5.06,0,0,1,10.12,0,5.06,5.06,0,1,1-10.12,0Zm8.75,0a3.69,3.69,0,0,0-7.38,0,3.69,3.69,0,1,0,7.38,0Z" transform="translate(-20.42 -21.63)" fill="#404041"/>
      <path d="M487.68,100.39a3.53,3.53,0,0,0-1.41-.33c-2,0-2.78,2.33-2.78,4.9v3.61H482.1V98.88h1.39v2.2c.47-1.66,1.37-2.41,2.78-2.41a3.06,3.06,0,0,1,1.57.38Z" transform="translate(-20.42 -21.63)" fill="#404041"/>
      <path d="M490.55,108.57v-8.45h-1.74V98.88h1.74V95.25h1.39v3.63H494v1.24h-2.06v8.45Z" transform="translate(-20.42 -21.63)" fill="#404041"/>
      <path d="M497,94.27a1,1,0,1,1-1.06,1A1,1,0,0,1,497,94.27Zm.66,4.61h-1.37v9.69h1.37Z" transform="translate(-20.42 -21.63)" fill="#404041"/>
      <path d="M507.85,98.88h1.39v9.69h-1.39V107a3.6,3.6,0,0,1-3.22,1.81c-2.37,0-3.76-1.62-3.74-4.26V98.88h1.4v5.64c0,1.79.84,2.89,2.34,2.89a3,3,0,0,0,3.22-3.24Z" transform="translate(-20.42 -21.63)" fill="#404041"/>
      <path d="M520.92,108.57h-1.39v-5.65c0-1.78-.85-2.88-2.34-2.88a3,3,0,0,0-3.22,3.24v5.29h-1.39V98.88H514v1.6a3.87,3.87,0,0,1,3.22-1.81,3.38,3.38,0,0,1,3.36,2.12,3.79,3.79,0,0,1,3.59-2.12c2.37,0,3.76,1.62,3.73,4.25v5.65h-1.39v-5.65c0-1.78-.85-2.88-2.34-2.88a3,3,0,0,0-3.22,3.24Z" transform="translate(-20.42 -21.63)" fill="#404041"/>
      <path d="M544.51,107.45a5.11,5.11,0,0,1-3.5,1.33,5,5,0,0,1-5.07-5.09,4.89,4.89,0,0,1,5.07-5,5.14,5.14,0,0,1,3.48,1.31l-1,1A3.83,3.83,0,0,0,541,100a3.55,3.55,0,0,0-3.7,3.65,3.61,3.61,0,0,0,3.7,3.72,3.7,3.7,0,0,0,2.51-.94Z" transform="translate(-20.42 -21.63)" fill="#404041"/>
      <path d="M556.08,108.57h-1.39v-1.66a4.28,4.28,0,0,1-3.65,1.87,4.86,4.86,0,0,1-5-5.09,4.8,4.8,0,0,1,5-5,4.2,4.2,0,0,1,3.65,1.81v-1.6h1.39Zm-5-1.18a3.5,3.5,0,0,0,3.65-3.7,3.57,3.57,0,0,0-3.65-3.63,3.44,3.44,0,0,0-3.57,3.63A3.54,3.54,0,0,0,551,107.39Z" transform="translate(-20.42 -21.63)" fill="#404041"/>
      <path d="M560.82,108.57h-1.39V98.88h1.39v1.6A3.58,3.58,0,0,1,564,98.67c2.37,0,3.76,1.62,3.74,4.25v5.65h-1.39v-5.65c0-1.78-.85-2.88-2.35-2.88a3,3,0,0,0-3.21,3.24Z" transform="translate(-20.42 -21.63)" fill="#404041"/>
      <path d="M580.33,108.57h-1.39v-1.66a4.28,4.28,0,0,1-3.65,1.87,4.86,4.86,0,0,1-5-5.09,4.8,4.8,0,0,1,5-5,4.2,4.2,0,0,1,3.65,1.81v-1.6h1.39Zm-5-1.18a3.5,3.5,0,0,0,3.65-3.7,3.57,3.57,0,0,0-3.65-3.63,3.45,3.45,0,0,0-3.57,3.63A3.54,3.54,0,0,0,575.29,107.39Z" transform="translate(-20.42 -21.63)" fill="#404041"/>
      <path d="M593,108.57h-1.39v-1.66a4.27,4.27,0,0,1-3.65,1.87,4.86,4.86,0,0,1-5-5.09,4.8,4.8,0,0,1,5-5,4.19,4.19,0,0,1,3.65,1.81V93.63H593Zm-5-1.18a3.5,3.5,0,0,0,3.65-3.7,3.57,3.57,0,0,0-3.65-3.63,3.45,3.45,0,0,0-3.57,3.63A3.54,3.54,0,0,0,588,107.39Z" transform="translate(-20.42 -21.63)" fill="#404041"/>
      <path d="M597.07,94.27a1,1,0,1,1-1.06,1A1,1,0,0,1,597.07,94.27Zm.66,4.61h-1.37v9.69h1.37Z" transform="translate(-20.42 -21.63)" fill="#404041"/>
      <path d="M600.42,103.69a4.75,4.75,0,0,1,4.9-5c2.76,0,4.75,2,4.75,5,0,.21,0,.46,0,.65h-8.21a3.53,3.53,0,0,0,6.51,1.39c.41.1.95.2,1.39.31a4.74,4.74,0,0,1-4.42,2.74A4.81,4.81,0,0,1,600.42,103.69Zm8.24-.64a3.27,3.27,0,0,0-3.34-3,3.38,3.38,0,0,0-3.48,3Z" transform="translate(-20.42 -21.63)" fill="#404041"/>
      <path d="M614,108.57h-1.39V98.88H614v1.6a3.6,3.6,0,0,1,3.22-1.81c2.36,0,3.76,1.62,3.73,4.25v5.65h-1.39v-5.65c0-1.78-.85-2.88-2.34-2.88a3,3,0,0,0-3.22,3.24Z" transform="translate(-20.42 -21.63)" fill="#404041"/>
      <path d="M629.05,103.69a4.74,4.74,0,0,1,4.89-5c2.76,0,4.76,2,4.76,5a4.57,4.57,0,0,1,0,.65h-8.21a3.53,3.53,0,0,0,6.51,1.39c.42.1,1,.2,1.39.31a4.74,4.74,0,0,1-4.42,2.74A4.8,4.8,0,0,1,629.05,103.69Zm8.23-.64a3.27,3.27,0,0,0-3.34-3,3.39,3.39,0,0,0-3.48,3Z" transform="translate(-20.42 -21.63)" fill="#404041"/>
      <path d="M642.65,108.57h-1.39V98.88h1.39v1.6a3.58,3.58,0,0,1,3.21-1.81c2.37,0,3.76,1.62,3.74,4.25v5.65h-1.39v-5.65c0-1.78-.85-2.88-2.35-2.88a3,3,0,0,0-3.21,3.24Z" transform="translate(-20.42 -21.63)" fill="#404041"/>
      <path d="M425.08,133.44h-1.39v-9.69h1.39v1.6a3.58,3.58,0,0,1,3.21-1.81c2.37,0,3.76,1.62,3.74,4.26v5.64h-1.39V127.8c0-1.79-.85-2.89-2.35-2.89a3,3,0,0,0-3.21,3.24Z" transform="translate(-20.42 -21.63)" fill="#404041"/>
      <path d="M434.59,128.57a4.75,4.75,0,0,1,4.9-5c2.75,0,4.75,1.95,4.75,5a4.5,4.5,0,0,1,0,.64H436a3.53,3.53,0,0,0,6.51,1.39l1.39.31a4.71,4.71,0,0,1-4.41,2.74A4.8,4.8,0,0,1,434.59,128.57Zm8.24-.65a3.28,3.28,0,0,0-3.34-3,3.4,3.4,0,0,0-3.49,3Z" transform="translate(-20.42 -21.63)" fill="#404041"/>
      <path d="M453.62,123.75H455v9.69h-1.39v-1.6a3.58,3.58,0,0,1-3.21,1.81c-2.37,0-3.76-1.62-3.74-4.25v-5.65h1.39v5.65c0,1.78.85,2.88,2.35,2.88a3,3,0,0,0,3.21-3.24Z" transform="translate(-20.42 -21.63)" fill="#404041"/>
      <path d="M463.94,125.27a3.48,3.48,0,0,0-1.41-.34c-2,0-2.78,2.33-2.78,4.9v3.61h-1.39v-9.69h1.39V126c.48-1.66,1.37-2.41,2.78-2.41a3.1,3.1,0,0,1,1.58.38Z" transform="translate(-20.42 -21.63)" fill="#404041"/>
      <path d="M465.22,128.57a5.07,5.07,0,0,1,10.13,0,5.07,5.07,0,1,1-10.13,0Zm8.76,0a3.7,3.7,0,0,0-7.39,0,3.7,3.7,0,1,0,7.39,0Z" transform="translate(-20.42 -21.63)" fill="#404041"/>
      <path d="M487.37,133.44H486v-1.66a4.25,4.25,0,0,1-3.65,1.87,5.06,5.06,0,0,1,0-10.11,4.23,4.23,0,0,1,3.65,1.81V118.5h1.39Zm-5-1.18a3.49,3.49,0,0,0,3.65-3.69,3.57,3.57,0,0,0-3.65-3.64,3.46,3.46,0,0,0-3.57,3.64A3.54,3.54,0,0,0,482.33,132.26Z" transform="translate(-20.42 -21.63)" fill="#404041"/>
      <path d="M490.05,128.57a4.75,4.75,0,0,1,4.9-5c2.76,0,4.75,1.95,4.75,5,0,.2,0,.45,0,.64h-8.22A3.54,3.54,0,0,0,498,130.6l1.39.31a4.74,4.74,0,0,1-4.42,2.74A4.8,4.8,0,0,1,490.05,128.57Zm8.24-.65a3.28,3.28,0,0,0-3.34-3,3.4,3.4,0,0,0-3.49,3Zm-2.84-6H494l1.45-2.78h1.7Z" transform="translate(-20.42 -21.63)" fill="#404041"/>
      <path d="M503.43,135.18a3.39,3.39,0,0,0,3,1.73c2.24,0,3.82-1.27,3.8-5.23a4.16,4.16,0,0,1-3.65,2,4.8,4.8,0,0,1-5-5,4.86,4.86,0,0,1,5-5.09,4.28,4.28,0,0,1,3.65,1.87v-1.66h1.39v8.16c0,4.75-2.14,6.37-5.19,6.37a4.76,4.76,0,0,1-4.17-2.41Zm3.13-2.92a3.57,3.57,0,0,0,3.65-3.63,3.5,3.5,0,0,0-3.65-3.7,3.54,3.54,0,0,0-3.57,3.7A3.45,3.45,0,0,0,506.56,132.26Z" transform="translate(-20.42 -21.63)" fill="#404041"/>
      <path d="M514.26,128.57a4.75,4.75,0,0,1,4.9-5c2.76,0,4.75,1.95,4.75,5,0,.2,0,.45,0,.64h-8.22a3.54,3.54,0,0,0,6.52,1.39l1.39.31a4.74,4.74,0,0,1-4.42,2.74A4.8,4.8,0,0,1,514.26,128.57Zm8.24-.65a3.28,3.28,0,0,0-3.34-3,3.4,3.4,0,0,0-3.49,3Zm-2.84-6h-1.41l1.45-2.78h1.7Z" transform="translate(-20.42 -21.63)" fill="#404041"/>
      <path d="M527.86,133.44h-1.39v-9.69h1.39v1.6a3.59,3.59,0,0,1,3.22-1.81c2.36,0,3.75,1.62,3.73,4.26v5.64h-1.39V127.8c0-1.79-.85-2.89-2.34-2.89a3,3,0,0,0-3.22,3.24Z" transform="translate(-20.42 -21.63)" fill="#404041"/>
      <path d="M537.37,128.57a4.75,4.75,0,0,1,4.9-5c2.76,0,4.75,1.95,4.75,5,0,.2,0,.45,0,.64h-8.22a3.54,3.54,0,0,0,6.52,1.39l1.39.31a4.74,4.74,0,0,1-4.42,2.74A4.8,4.8,0,0,1,537.37,128.57Zm8.24-.65a3.28,3.28,0,0,0-3.34-3,3.4,3.4,0,0,0-3.49,3Zm-2.84-6h-1.41l1.45-2.78h1.7Z" transform="translate(-20.42 -21.63)" fill="#404041"/>
      <path d="M555.16,125.27a3.52,3.52,0,0,0-1.41-.34c-2,0-2.78,2.33-2.78,4.9v3.61h-1.39v-9.69H551V126c.48-1.66,1.37-2.41,2.78-2.41a3.1,3.1,0,0,1,1.58.38Z" transform="translate(-20.42 -21.63)" fill="#404041"/>
      <path d="M556.44,128.57a4.75,4.75,0,0,1,4.9-5c2.76,0,4.75,1.95,4.75,5,0,.2,0,.45,0,.64h-8.22a3.54,3.54,0,0,0,6.52,1.39l1.39.31a4.74,4.74,0,0,1-4.42,2.74A4.8,4.8,0,0,1,556.44,128.57Zm8.24-.65a3.28,3.28,0,0,0-3.34-3,3.4,3.4,0,0,0-3.49,3Z" transform="translate(-20.42 -21.63)" fill="#404041"/>
      <path d="M569.11,130.66a2.06,2.06,0,0,0,2.28,1.68c1.24,0,2.05-.62,2.05-1.53,0-.65-.37-1.25-1.39-1.5L570.7,129c-1.2-.29-2.69-.89-2.44-3.15a3,3,0,0,1,3.15-2.31,2.81,2.81,0,0,1,3.05,2.51h-1.35a1.63,1.63,0,0,0-1.7-1.18,1.69,1.69,0,0,0-1.8,1.18c-.21,1.13.74,1.46,1.43,1.62l1.32.31a2.73,2.73,0,0,1,2.45,2.83c0,1.68-1.53,2.84-3.55,2.84a3.24,3.24,0,0,1-3.38-3Z" transform="translate(-20.42 -21.63)" fill="#404041"/>
      <path d="M585.34,132.32a5.09,5.09,0,0,1-3.5,1.33,5.06,5.06,0,1,1,0-10.11,5.12,5.12,0,0,1,3.48,1.31l-1,1a3.84,3.84,0,0,0-2.51-.92,3.57,3.57,0,0,0-3.7,3.66,3.61,3.61,0,0,0,3.7,3.71,3.74,3.74,0,0,0,2.51-.93Z" transform="translate(-20.42 -21.63)" fill="#404041"/>
      <path d="M586.91,128.57a4.75,4.75,0,0,1,4.9-5c2.76,0,4.75,1.95,4.75,5,0,.2,0,.45,0,.64h-8.22a3.54,3.54,0,0,0,6.52,1.39l1.38.31a4.71,4.71,0,0,1-4.41,2.74A4.8,4.8,0,0,1,586.91,128.57Zm8.24-.65a3.28,3.28,0,0,0-3.34-3,3.4,3.4,0,0,0-3.49,3Z" transform="translate(-20.42 -21.63)" fill="#404041"/>
      <path d="M600.51,133.44h-1.39v-9.69h1.39v1.6a3.59,3.59,0,0,1,3.22-1.81c2.36,0,3.75,1.62,3.73,4.26v5.64h-1.39V127.8c0-1.79-.85-2.89-2.34-2.89a3,3,0,0,0-3.22,3.24Z" transform="translate(-20.42 -21.63)" fill="#404041"/>
      <path d="M618.59,132.32a5.12,5.12,0,0,1-3.51,1.33,5.06,5.06,0,1,1,0-10.11,5.16,5.16,0,0,1,3.49,1.31l-1,1a3.8,3.8,0,0,0-2.51-.92,3.56,3.56,0,0,0-3.69,3.66,3.6,3.6,0,0,0,3.69,3.71,3.71,3.71,0,0,0,2.51-.93Z" transform="translate(-20.42 -21.63)" fill="#404041"/>
      <path d="M620.16,128.57a4.75,4.75,0,0,1,4.89-5c2.76,0,4.75,1.95,4.75,5,0,.2,0,.45,0,.64h-8.21a3.53,3.53,0,0,0,6.51,1.39l1.39.31a4.74,4.74,0,0,1-4.42,2.74A4.79,4.79,0,0,1,620.16,128.57Zm8.23-.65a3.27,3.27,0,0,0-3.34-3,3.4,3.4,0,0,0-3.48,3Z" transform="translate(-20.42 -21.63)" fill="#404041"/>
      <path d="M433,158.31h-1.39v-1.66a4.24,4.24,0,0,1-3.65,1.87,4.85,4.85,0,0,1-5-5.08,4.8,4.8,0,0,1,5-5,4.21,4.21,0,0,1,3.65,1.8v-1.6H433Zm-5-1.18a3.49,3.49,0,0,0,3.65-3.69,3.56,3.56,0,0,0-3.65-3.63,3.45,3.45,0,0,0-3.57,3.63A3.53,3.53,0,0,0,428,157.13Z" transform="translate(-20.42 -21.63)" fill="#404041"/>
      <path d="M436.83,155.53a2.07,2.07,0,0,0,2.28,1.68c1.24,0,2.05-.62,2.05-1.53,0-.64-.37-1.25-1.39-1.5l-1.35-.31c-1.2-.29-2.69-.89-2.44-3.15a3,3,0,0,1,3.15-2.3,2.8,2.8,0,0,1,3.05,2.51h-1.35a1.62,1.62,0,0,0-1.7-1.19,1.68,1.68,0,0,0-1.8,1.19c-.21,1.12.74,1.45,1.43,1.61l1.33.32a2.71,2.71,0,0,1,2.44,2.82c0,1.68-1.53,2.84-3.55,2.84a3.24,3.24,0,0,1-3.38-3Z" transform="translate(-20.42 -21.63)" fill="#404041"/>
      <path d="M445.62,155.53a2.06,2.06,0,0,0,2.28,1.68c1.24,0,2.05-.62,2.05-1.53,0-.64-.37-1.25-1.39-1.5l-1.35-.31c-1.2-.29-2.69-.89-2.44-3.15a3,3,0,0,1,3.15-2.3,2.8,2.8,0,0,1,3.05,2.51h-1.35a1.63,1.63,0,0,0-1.7-1.19,1.7,1.7,0,0,0-1.81,1.19c-.2,1.12.75,1.45,1.44,1.61l1.32.32a2.71,2.71,0,0,1,2.45,2.82c0,1.68-1.53,2.84-3.55,2.84a3.24,3.24,0,0,1-3.38-3Z" transform="translate(-20.42 -21.63)" fill="#404041"/>
      <path d="M453.28,153.44a5.07,5.07,0,1,1,5.07,5.08A4.94,4.94,0,0,1,453.28,153.44Zm8.76,0a3.7,3.7,0,0,0-7.39,0,3.7,3.7,0,1,0,7.39,0Z" transform="translate(-20.42 -21.63)" fill="#404041"/>
      <path d="M474,157.19a5.12,5.12,0,0,1-3.51,1.33,4.93,4.93,0,0,1-5.06-5.08,4.88,4.88,0,0,1,5.06-5,5.15,5.15,0,0,1,3.49,1.3l-1,1a3.79,3.79,0,0,0-2.51-.91,3.55,3.55,0,0,0-3.69,3.65,3.6,3.6,0,0,0,3.69,3.71,3.71,3.71,0,0,0,2.51-.93Z" transform="translate(-20.42 -21.63)" fill="#404041"/>
      <path d="M477.25,144a1,1,0,1,1,0,2,1,1,0,1,1,0-2Zm.66,4.6h-1.37v9.69h1.37Z" transform="translate(-20.42 -21.63)" fill="#404041"/>
      <path d="M480.6,153.44a4.75,4.75,0,0,1,4.9-5c2.76,0,4.75,2,4.75,5,0,.21,0,.45,0,.64H482a3.54,3.54,0,0,0,6.52,1.39l1.39.31a4.74,4.74,0,0,1-4.42,2.74A4.8,4.8,0,0,1,480.6,153.44Zm8.24-.65a3.27,3.27,0,0,0-3.34-3,3.39,3.39,0,0,0-3.49,3Zm-2.84-6h-1.41L486,144h1.7Z" transform="translate(-20.42 -21.63)" fill="#404041"/>
      <path d="M492.15,153.44a4.74,4.74,0,0,1,4.89-5c2.76,0,4.75,2,4.75,5,0,.21,0,.45,0,.64h-8.21a3.53,3.53,0,0,0,6.51,1.39l1.39.31a4.74,4.74,0,0,1-4.42,2.74A4.79,4.79,0,0,1,492.15,153.44Zm8.23-.65a3.26,3.26,0,0,0-3.34-3,3.39,3.39,0,0,0-3.48,3Z" transform="translate(-20.42 -21.63)" fill="#404041"/>
      <path d="M519.2,158.31h-1.39v-1.66a4.24,4.24,0,0,1-3.65,1.87,4.85,4.85,0,0,1-5-5.08,4.8,4.8,0,0,1,5-5,4.21,4.21,0,0,1,3.65,1.8v-1.6h1.39Zm-5-1.18a3.49,3.49,0,0,0,3.65-3.69,3.56,3.56,0,0,0-3.65-3.63,3.45,3.45,0,0,0-3.57,3.63A3.53,3.53,0,0,0,514.16,157.13Z" transform="translate(-20.42 -21.63)" fill="#404041"/>
      <path d="M529.38,148.62h1.39v9.69h-1.39v-1.59a3.6,3.6,0,0,1-3.22,1.8c-2.36,0-3.75-1.62-3.73-4.25v-5.65h1.39v5.65c0,1.78.85,2.88,2.34,2.88a3,3,0,0,0,3.22-3.24Z" transform="translate(-20.42 -21.63)" fill="#404041"/>
      <path d="M539.38,148.62l3.3,8.07,3.28-8.07h1.48l-4,9.69h-1.47l-4-9.69Z" transform="translate(-20.42 -21.63)" fill="#404041"/>
      <path d="M550.29,144a1,1,0,1,1,0,2,1,1,0,1,1,0-2Zm.66,4.6h-1.37v9.69H551Z" transform="translate(-20.42 -21.63)" fill="#404041"/>
      <path d="M553.64,153.44a4.75,4.75,0,0,1,4.9-5c2.76,0,4.75,2,4.75,5,0,.21,0,.45,0,.64h-8.22a3.54,3.54,0,0,0,6.52,1.39l1.39.31a4.74,4.74,0,0,1-4.42,2.74A4.8,4.8,0,0,1,553.64,153.44Zm8.24-.65a3.27,3.27,0,0,0-3.34-3,3.39,3.39,0,0,0-3.49,3Z" transform="translate(-20.42 -21.63)" fill="#404041"/>
      <path d="M566.56,144a1,1,0,1,1-1.06,1A1,1,0,0,1,566.56,144Zm.66,4.6h-1.37v9.69h1.37Z" transform="translate(-20.42 -21.63)" fill="#404041"/>
      <path d="M572,158.31h-1.37V143.38H572Z" transform="translate(-20.42 -21.63)" fill="#404041"/>
      <path d="M576.67,158.31H575.3V143.38h1.37Z" transform="translate(-20.42 -21.63)" fill="#404041"/>
      <path d="M580.73,144a1,1,0,1,1-1.05,1A1,1,0,0,1,580.73,144Zm.67,4.6H580v9.69h1.37Z" transform="translate(-20.42 -21.63)" fill="#404041"/>
      <path d="M585.21,155.53a2.07,2.07,0,0,0,2.28,1.68c1.25,0,2.06-.62,2.06-1.53,0-.64-.38-1.25-1.39-1.5l-1.35-.31c-1.2-.29-2.7-.89-2.45-3.15a3,3,0,0,1,3.15-2.3,2.79,2.79,0,0,1,3,2.51h-1.35a1.62,1.62,0,0,0-1.7-1.19,1.68,1.68,0,0,0-1.8,1.19c-.21,1.12.74,1.45,1.43,1.61l1.33.32a2.72,2.72,0,0,1,2.45,2.82c0,1.68-1.54,2.84-3.55,2.84a3.23,3.23,0,0,1-3.38-3Z" transform="translate(-20.42 -21.63)" fill="#404041"/>
      <path d="M594,155.53a2.07,2.07,0,0,0,2.28,1.68c1.25,0,2.06-.62,2.06-1.53,0-.64-.38-1.25-1.39-1.5l-1.35-.31c-1.21-.29-2.7-.89-2.45-3.15a3,3,0,0,1,3.15-2.3,2.8,2.8,0,0,1,3.05,2.51H598a1.62,1.62,0,0,0-1.7-1.19,1.68,1.68,0,0,0-1.8,1.19c-.21,1.12.74,1.45,1.43,1.61l1.33.32a2.72,2.72,0,0,1,2.45,2.82c0,1.68-1.54,2.84-3.55,2.84a3.23,3.23,0,0,1-3.38-3Z" transform="translate(-20.42 -21.63)" fill="#404041"/>
      <path d="M601.67,153.44a4.75,4.75,0,0,1,4.89-5c2.76,0,4.76,2,4.76,5a4.43,4.43,0,0,1,0,.64h-8.21a3.53,3.53,0,0,0,6.51,1.39l1.39.31a4.73,4.73,0,0,1-4.42,2.74A4.8,4.8,0,0,1,601.67,153.44Zm8.23-.65a3.26,3.26,0,0,0-3.34-3,3.39,3.39,0,0,0-3.48,3Z" transform="translate(-20.42 -21.63)" fill="#404041"/>
      <path d="M622.22,158.31h-1.39v-5.64c0-1.78-.85-2.88-2.35-2.88a3,3,0,0,0-3.21,3.23v5.29h-1.39v-9.69h1.39v1.6a3.85,3.85,0,0,1,3.21-1.8,3.37,3.37,0,0,1,3.36,2.11,3.8,3.8,0,0,1,3.59-2.11c2.37,0,3.76,1.61,3.74,4.25v5.64h-1.39v-5.64c0-1.78-.85-2.88-2.35-2.88a3,3,0,0,0-3.21,3.23Z" transform="translate(-20.42 -21.63)" fill="#404041"/>
      <path d="M631.72,153.44a4.75,4.75,0,0,1,4.9-5c2.76,0,4.75,2,4.75,5,0,.21,0,.45,0,.64h-8.22a3.54,3.54,0,0,0,6.52,1.39l1.39.31a4.74,4.74,0,0,1-4.42,2.74A4.8,4.8,0,0,1,631.72,153.44Zm8.24-.65a3.27,3.27,0,0,0-3.34-3,3.39,3.39,0,0,0-3.49,3Z" transform="translate(-20.42 -21.63)" fill="#404041"/>
      <path d="M645.32,158.31h-1.39v-9.69h1.39v1.6a3.59,3.59,0,0,1,3.22-1.8c2.36,0,3.75,1.61,3.73,4.25v5.64h-1.39v-5.64c0-1.78-.85-2.88-2.34-2.88a3,3,0,0,0-3.22,3.23Z" transform="translate(-20.42 -21.63)" fill="#404041"/>
      <path d="M656.14,158.31v-8.44h-1.75v-1.25h1.75V145h1.39v3.63h2.05v1.25h-2.05v8.44Z" transform="translate(-20.42 -21.63)" fill="#404041"/>
    </g>
    <g>
      <path d="M39.85,106.62a7,7,0,0,1-12-5.18c0-4.07,2.88-7.35,6.93-7.35a7,7,0,0,1,5.08,2.14l-.95,1a5.82,5.82,0,0,0-4.13-1.72c-3.3,0-5.56,2.68-5.56,6s2.26,6,5.56,6a5.76,5.76,0,0,0,4.15-1.74Z" transform="translate(-20.42 -21.63)" fill="#404041"/>
      <path d="M51.48,108.55H50.09v-1.66a4.25,4.25,0,0,1-3.65,1.87,4.85,4.85,0,0,1-5-5.08,4.8,4.8,0,0,1,5-5,4.22,4.22,0,0,1,3.65,1.8v-1.6h1.39Zm-5-1.18a3.49,3.49,0,0,0,3.65-3.69,3.56,3.56,0,0,0-3.65-3.63,3.44,3.44,0,0,0-3.57,3.63A3.53,3.53,0,0,0,46.44,107.37Z" transform="translate(-20.42 -21.63)" fill="#404041"/>
      <path d="M56.22,108.55H54.83V98.86h1.39v1.6a3.59,3.59,0,0,1,3.21-1.8c2.37,0,3.76,1.61,3.74,4.25v5.64H61.78v-5.64c0-1.78-.85-2.88-2.35-2.88a3,3,0,0,0-3.21,3.23Z" transform="translate(-20.42 -21.63)" fill="#404041"/>
      <path d="M75.73,108.55H74.34v-1.66a4.25,4.25,0,0,1-3.65,1.87,4.85,4.85,0,0,1-5-5.08,4.8,4.8,0,0,1,5-5,4.22,4.22,0,0,1,3.65,1.8v-1.6h1.39Zm-5-1.18a3.49,3.49,0,0,0,3.65-3.69,3.56,3.56,0,0,0-3.65-3.63,3.44,3.44,0,0,0-3.57,3.63A3.53,3.53,0,0,0,70.69,107.37Z" transform="translate(-20.42 -21.63)" fill="#404041"/>
      <path d="M88.41,108.55H87v-1.66a4.24,4.24,0,0,1-3.65,1.87,4.85,4.85,0,0,1-5-5.08,4.8,4.8,0,0,1,5-5,4.21,4.21,0,0,1,3.65,1.8V93.61h1.39Zm-5-1.18A3.49,3.49,0,0,0,87,103.68a3.56,3.56,0,0,0-3.65-3.63,3.45,3.45,0,0,0-3.57,3.63A3.53,3.53,0,0,0,83.37,107.37Z" transform="translate(-20.42 -21.63)" fill="#404041"/>
      <path d="M92.47,94.26a1,1,0,1,1-1.06,1A1,1,0,0,1,92.47,94.26Zm.66,4.6H91.76v9.69h1.37Z" transform="translate(-20.42 -21.63)" fill="#404041"/>
      <path d="M105.83,108.55h-1.39v-1.66a4.27,4.27,0,0,1-3.66,1.87,4.85,4.85,0,0,1-5-5.08,4.8,4.8,0,0,1,5-5,4.24,4.24,0,0,1,3.66,1.8v-1.6h1.39Zm-5-1.18a3.5,3.5,0,0,0,3.66-3.69,3.56,3.56,0,0,0-3.66-3.63,3.45,3.45,0,0,0-3.57,3.63A3.53,3.53,0,0,0,100.78,107.37Z" transform="translate(-20.42 -21.63)" fill="#404041"/>
      <path d="M110.56,108.55h-1.39V98.86h1.39v1.6a3.6,3.6,0,0,1,3.22-1.8c2.36,0,3.75,1.61,3.73,4.25v5.64h-1.39v-5.64c0-1.78-.85-2.88-2.34-2.88a3,3,0,0,0-3.22,3.23Z" transform="translate(-20.42 -21.63)" fill="#404041"/>
      <path d="M137.73,106.62a7.08,7.08,0,0,1-5.11,2.14,7,7,0,0,1-6.93-7.32c0-4.07,2.88-7.35,6.93-7.35a7,7,0,0,1,5.08,2.14l-.95,1a5.82,5.82,0,0,0-4.13-1.72c-3.3,0-5.56,2.68-5.56,6s2.26,6,5.56,6a5.76,5.76,0,0,0,4.15-1.74Z" transform="translate(-20.42 -21.63)" fill="#404041"/>
      <path d="M139.35,103.68a5.06,5.06,0,0,1,10.12,0,5.06,5.06,0,1,1-10.12,0Zm8.75,0a3.69,3.69,0,0,0-7.38,0,3.69,3.69,0,1,0,7.38,0Z" transform="translate(-20.42 -21.63)" fill="#404041"/>
      <path d="M153.55,108.55h-1.39V98.86h1.39v1.6a3.6,3.6,0,0,1,3.22-1.8c2.36,0,3.75,1.61,3.73,4.25v5.64h-1.39v-5.64c0-1.78-.85-2.88-2.34-2.88a3,3,0,0,0-3.22,3.23Z" transform="translate(-20.42 -21.63)" fill="#404041"/>
      <path d="M164.18,105.77a2.07,2.07,0,0,0,2.29,1.68c1.24,0,2.05-.62,2.05-1.53,0-.65-.38-1.25-1.39-1.5l-1.35-.31c-1.2-.29-2.7-.89-2.45-3.15a3,3,0,0,1,3.16-2.3,2.8,2.8,0,0,1,3,2.51h-1.35a1.64,1.64,0,0,0-1.7-1.19,1.69,1.69,0,0,0-1.81,1.19c-.21,1.12.75,1.45,1.43,1.61l1.33.32a2.72,2.72,0,0,1,2.45,2.82c0,1.68-1.54,2.84-3.55,2.84a3.23,3.23,0,0,1-3.38-3Z" transform="translate(-20.42 -21.63)" fill="#404041"/>
      <path d="M171.85,103.68a5.06,5.06,0,0,1,10.12,0,5.06,5.06,0,1,1-10.12,0Zm8.75,0a3.69,3.69,0,0,0-7.38,0,3.69,3.69,0,1,0,7.38,0Z" transform="translate(-20.42 -21.63)" fill="#404041"/>
      <path d="M190.24,100.38a3.53,3.53,0,0,0-1.41-.33c-2,0-2.78,2.32-2.78,4.89v3.61h-1.39V98.86h1.39v2.2c.48-1.66,1.37-2.4,2.78-2.4a3.15,3.15,0,0,1,1.58.37Z" transform="translate(-20.42 -21.63)" fill="#404041"/>
      <path d="M193.12,108.55v-8.44h-1.75V98.86h1.75V95.23h1.39v3.63h2.05v1.25h-2.05v8.44Z" transform="translate(-20.42 -21.63)" fill="#404041"/>
      <path d="M199.56,94.26a1,1,0,1,1-1.06,1A1,1,0,0,1,199.56,94.26Zm.67,4.6h-1.37v9.69h1.37Z" transform="translate(-20.42 -21.63)" fill="#404041"/>
      <path d="M210.41,98.86h1.39v9.69h-1.39V107a3.6,3.6,0,0,1-3.22,1.8c-2.36,0-3.75-1.62-3.73-4.25V98.86h1.39v5.65c0,1.78.85,2.88,2.34,2.88a3,3,0,0,0,3.22-3.24Z" transform="translate(-20.42 -21.63)" fill="#404041"/>
      <path d="M223.49,108.55H222.1v-5.64c0-1.78-.85-2.88-2.35-2.88a3,3,0,0,0-3.21,3.23v5.29h-1.39V98.86h1.39v1.6a3.85,3.85,0,0,1,3.21-1.8,3.39,3.39,0,0,1,3.37,2.11,3.8,3.8,0,0,1,3.59-2.11c2.36,0,3.75,1.61,3.73,4.25v5.64h-1.39v-5.64c0-1.78-.85-2.88-2.34-2.88a3,3,0,0,0-3.22,3.23Z" transform="translate(-20.42 -21.63)" fill="#404041"/>
      <path d="M20.42,128.55a4.88,4.88,0,0,1,5.06-5,4.88,4.88,0,0,1,5.06,5,4.93,4.93,0,0,1-5.06,5.08A4.93,4.93,0,0,1,20.42,128.55Zm8.75,0a3.55,3.55,0,0,0-3.69-3.65,3.55,3.55,0,0,0-3.69,3.65,3.69,3.69,0,1,0,7.38,0Z" transform="translate(-20.42 -21.63)" fill="#404041"/>
      <path d="M34.62,133.43H33.23v-9.69h1.39v1.59a3.59,3.59,0,0,1,3.21-1.8c2.37,0,3.76,1.62,3.74,4.25v5.65H40.18v-5.65c0-1.78-.85-2.88-2.35-2.88a3,3,0,0,0-3.21,3.23Z" transform="translate(-20.42 -21.63)" fill="#404041"/>
      <path d="M59.35,133.43l-7.28-12v12H50.7v-14.3h1.47L59.39,131V119.13h1.37v14.3Z" transform="translate(-20.42 -21.63)" fill="#404041"/>
      <path d="M63.63,128.55a4.75,4.75,0,0,1,4.9-5c2.76,0,4.75,2,4.75,5,0,.21,0,.46,0,.64H65.05a3.53,3.53,0,0,0,6.51,1.39c.41.11,1,.21,1.39.31a4.72,4.72,0,0,1-4.42,2.74A4.8,4.8,0,0,1,63.63,128.55Zm8.24-.64a3.27,3.27,0,0,0-3.34-3,3.38,3.38,0,0,0-3.48,3Z" transform="translate(-20.42 -21.63)" fill="#404041"/>
      <path d="M82.67,123.74h1.39v9.69H82.67v-1.6a3.6,3.6,0,0,1-3.22,1.8c-2.36,0-3.75-1.62-3.73-4.25v-5.64h1.39v5.64c0,1.78.85,2.88,2.34,2.88A3,3,0,0,0,82.67,129Z" transform="translate(-20.42 -21.63)" fill="#404041"/>
      <path d="M93,125.25a3.53,3.53,0,0,0-1.41-.33c-2,0-2.78,2.32-2.78,4.9v3.61H87.41v-9.69H88.8v2.2c.47-1.66,1.37-2.41,2.78-2.41a3.19,3.19,0,0,1,1.57.37Z" transform="translate(-20.42 -21.63)" fill="#404041"/>
      <path d="M94.27,128.55a5.06,5.06,0,0,1,10.12,0,5.06,5.06,0,1,1-10.12,0Zm8.75,0a3.69,3.69,0,0,0-7.38,0,3.69,3.69,0,1,0,7.38,0Z" transform="translate(-20.42 -21.63)" fill="#404041"/>
      <path d="M116.41,133.43H115v-1.66a4.26,4.26,0,0,1-3.65,1.86,4.85,4.85,0,0,1-5-5.08,4.8,4.8,0,0,1,5-5,4.21,4.21,0,0,1,3.65,1.8v-6.84h1.39Zm-5-1.19a3.49,3.49,0,0,0,3.65-3.69,3.56,3.56,0,0,0-3.65-3.63,3.45,3.45,0,0,0-3.57,3.63A3.53,3.53,0,0,0,111.37,132.24Z" transform="translate(-20.42 -21.63)" fill="#404041"/>
      <path d="M119.1,128.55a4.75,4.75,0,0,1,4.89-5c2.76,0,4.76,2,4.76,5a4.36,4.36,0,0,1,0,.64h-8.21a3.53,3.53,0,0,0,6.51,1.39c.42.11,1,.21,1.39.31a4.71,4.71,0,0,1-4.42,2.74A4.8,4.8,0,0,1,119.1,128.55Zm8.23-.64a3.26,3.26,0,0,0-3.34-3,3.39,3.39,0,0,0-3.48,3Z" transform="translate(-20.42 -21.63)" fill="#404041"/>
      <path d="M132.47,135.17a3.42,3.42,0,0,0,3,1.72c2.24,0,3.82-1.26,3.8-5.23a4.17,4.17,0,0,1-3.66,2,4.8,4.8,0,0,1-5-5,4.85,4.85,0,0,1,5-5.08,4.27,4.27,0,0,1,3.66,1.87v-1.66h1.39v8.15c0,4.75-2.14,6.37-5.19,6.37a4.73,4.73,0,0,1-4.17-2.41Zm3.13-2.93a3.56,3.56,0,0,0,3.66-3.63,3.5,3.5,0,0,0-3.66-3.69,3.54,3.54,0,0,0-3.57,3.69A3.45,3.45,0,0,0,135.6,132.24Z" transform="translate(-20.42 -21.63)" fill="#404041"/>
      <path d="M143.31,128.55a4.74,4.74,0,0,1,4.89-5c2.76,0,4.76,2,4.76,5a4.36,4.36,0,0,1,0,.64h-8.21a3.53,3.53,0,0,0,6.51,1.39c.42.11,1,.21,1.39.31a4.72,4.72,0,0,1-4.42,2.74A4.79,4.79,0,0,1,143.31,128.55Zm8.23-.64a3.27,3.27,0,0,0-3.34-3,3.39,3.39,0,0,0-3.48,3Z" transform="translate(-20.42 -21.63)" fill="#404041"/>
      <path d="M156.91,133.43h-1.39v-9.69h1.39v1.59a3.59,3.59,0,0,1,3.21-1.8c2.37,0,3.76,1.62,3.74,4.25v5.65h-1.39v-5.65c0-1.78-.86-2.88-2.35-2.88a3,3,0,0,0-3.21,3.23Z" transform="translate(-20.42 -21.63)" fill="#404041"/>
      <path d="M166.42,128.55a4.75,4.75,0,0,1,4.89-5c2.76,0,4.76,2,4.76,5a4.36,4.36,0,0,1,0,.64h-8.21a3.53,3.53,0,0,0,6.51,1.39c.42.11,1,.21,1.39.31a4.71,4.71,0,0,1-4.42,2.74A4.8,4.8,0,0,1,166.42,128.55Zm8.23-.64a3.26,3.26,0,0,0-3.34-3,3.39,3.39,0,0,0-3.48,3Z" transform="translate(-20.42 -21.63)" fill="#404041"/>
      <path d="M184.21,125.25a3.53,3.53,0,0,0-1.41-.33c-2,0-2.78,2.32-2.78,4.9v3.61h-1.39v-9.69H180v2.2c.47-1.66,1.37-2.41,2.78-2.41a3.19,3.19,0,0,1,1.57.37Z" transform="translate(-20.42 -21.63)" fill="#404041"/>
      <path d="M195.49,133.43H194.1v-1.66a4.27,4.27,0,0,1-3.65,1.86,4.85,4.85,0,0,1-5-5.08,4.8,4.8,0,0,1,5-5,4.22,4.22,0,0,1,3.65,1.8v-1.59h1.39Zm-5-1.19a3.49,3.49,0,0,0,3.65-3.69,3.56,3.56,0,0,0-3.65-3.63,3.44,3.44,0,0,0-3.57,3.63A3.53,3.53,0,0,0,190.45,132.24Z" transform="translate(-20.42 -21.63)" fill="#404041"/>
      <path d="M199.48,133.43V125h-1.75v-1.24h1.75v-3.63h1.39v3.63h2V125h-2v8.45Z" transform="translate(-20.42 -21.63)" fill="#404041"/>
      <path d="M205.93,119.13a1,1,0,1,1-1.06,1A1,1,0,0,1,205.93,119.13Zm.66,4.61h-1.37v9.69h1.37Z" transform="translate(-20.42 -21.63)" fill="#404041"/>
      <path d="M209.28,128.55a5.07,5.07,0,0,1,10.13,0,5.07,5.07,0,1,1-10.13,0Zm8.76,0a3.7,3.7,0,0,0-7.39,0,3.7,3.7,0,1,0,7.39,0Z" transform="translate(-20.42 -21.63)" fill="#404041"/>
      <path d="M223.48,133.43h-1.39v-9.69h1.39v1.59a3.6,3.6,0,0,1,3.22-1.8c2.36,0,3.75,1.62,3.73,4.25v5.65H229v-5.65c0-1.78-.85-2.88-2.34-2.88a3,3,0,0,0-3.22,3.23Z" transform="translate(-20.42 -21.63)" fill="#404041"/>
      <path d="M158.52,144a1,1,0,1,1,0,2,1,1,0,1,1,0-2Zm.67,4.61h-1.37v9.69h1.37Z" transform="translate(-20.42 -21.63)" fill="#404041"/>
      <path d="M163.93,158.3h-1.39v-9.69h1.39v1.6a3.6,3.6,0,0,1,3.22-1.81c2.36,0,3.76,1.62,3.73,4.25v5.65h-1.39v-5.65c0-1.78-.85-2.88-2.34-2.88a3,3,0,0,0-3.22,3.24Z" transform="translate(-20.42 -21.63)" fill="#404041"/>
      <path d="M177.69,158.3l5.5-14.3h1.46l5.49,14.3h-1.47l-1.45-3.76H180.6l-1.43,3.76Zm6.23-12.39-2.82,7.34h5.64Z" transform="translate(-20.42 -21.63)" fill="#404041"/>
      <path d="M193.2,160a3.42,3.42,0,0,0,3,1.72c2.24,0,3.82-1.26,3.79-5.23a4.14,4.14,0,0,1-3.65,2,4.8,4.8,0,0,1-5-5,4.85,4.85,0,0,1,5-5.08,4.24,4.24,0,0,1,3.65,1.87v-1.66h1.4v8.15c0,4.75-2.14,6.37-5.19,6.37a4.74,4.74,0,0,1-4.17-2.4Zm3.13-2.93a3.56,3.56,0,0,0,3.65-3.63,3.49,3.49,0,0,0-3.65-3.69,3.54,3.54,0,0,0-3.57,3.69A3.45,3.45,0,0,0,196.33,157.11Z" transform="translate(-20.42 -21.63)" fill="#404041"/>
      <path d="M205.41,144a1,1,0,1,1-1.06,1A1,1,0,0,1,205.41,144Zm.66,4.61H204.7v9.69h1.37Z" transform="translate(-20.42 -21.63)" fill="#404041"/>
      <path d="M210.82,158.3h-1.39v-9.69h1.39v1.6A3.58,3.58,0,0,1,214,148.4c2.37,0,3.76,1.62,3.74,4.25v5.65h-1.39v-5.65c0-1.78-.85-2.88-2.35-2.88a3,3,0,0,0-3.21,3.24Z" transform="translate(-20.42 -21.63)" fill="#404041"/>
      <path d="M222.16,160a3.4,3.4,0,0,0,3,1.72c2.24,0,3.82-1.26,3.8-5.23a4.14,4.14,0,0,1-3.65,2,4.8,4.8,0,0,1-5-5,4.85,4.85,0,0,1,5-5.08,4.25,4.25,0,0,1,3.65,1.87v-1.66h1.39v8.15c0,4.75-2.14,6.37-5.19,6.37a4.77,4.77,0,0,1-4.17-2.4Zm3.13-2.93a3.56,3.56,0,0,0,3.65-3.63,3.49,3.49,0,0,0-3.65-3.69,3.54,3.54,0,0,0-3.57,3.69A3.45,3.45,0,0,0,225.29,157.11Z" transform="translate(-20.42 -21.63)" fill="#404041"/>
    </g>
    <path d="M264,104.61a40.74,40.74,0,0,1-5.26-4.91c-.94-1.08-2.17-2.5-2.3-4s1.57-2,2.86-2.11c.29,0,.57,0,.86,0,1.88,0,4.12-.07,5.37-1.69a4.3,4.3,0,0,0,.59-3.54,27.6,27.6,0,0,0-1.44-4.09c-1.15-3.47-2.44-6.9-3.62-10.36,0,0-2-5.65,3.46-4.92,4.56,1.37,11.47,3.8,11.47,3.8s5.82,2.52,7.21-2.07l1.07-5.54s1.43-5.71,4.78-1L303,80.1s4.5,4.69,3.89-1.31L299,42.55s-.82-6.53,4.16-1.87l6.1,5.59s3.8,4,6.4-.25c3.51-5.69,5.19-12.29,7.79-18.4.11-.25.23-.5.33-.76l.61-1.54s3.77-8.3,6.9,0L339,44.62s3.16,7.83,8.14,2.46l6.32-7.1s4.16-5,3.58,1.79l-1.26,6-3.55,14-4.14,15.35s-2.24,8.24,4.7,2.57l13.31-14c1.4-1.47,5.43-4.29,5.68-.53.11,1.76.33,3.51.52,5.26,0,0,.4,5.79,6.69,2.63l11.74-4.36s7-2.58,5.73,3.8l-1.9,8.81-2.29,7.91s-3.13,7.69.56,8.58l3.13-.55s5.37-1.26,1.79,1.9l-1,.82-2.71,2.23-4,3.28-4.85,4-5.29,4.35-5.29,4.34-4.86,4-4,3.3L363,127.71a7.51,7.51,0,0,0-2.11,2.13,5.83,5.83,0,0,0,.66,5.72,20.77,20.77,0,0,0,2.69,2.53c1,.91,2.22,1.68,3.19,2.65.28.3.75.86.3,1.21a1.87,1.87,0,0,1-1,.22,12.17,12.17,0,0,1-2.26-.18l-24.38-5.48s-4.7-1.12-7.05-.68c0,0-4.61.62-3.72,5.76,0,0,.81,4.95,1.85,9.32.55,2.18,1.87,6.29-.93,8.3,0,0-3.9,2.64-6.71-1a5.3,5.3,0,0,1-.64-3.75c.17-1.56.53-3.11.85-4.64.6-2.91,1.4-6,1.29-9-.07-1.9-.47-4.49-2.62-5.1,0,0-3.46-.78-12.41,1.12l-13.54,3.36a26,26,0,0,1-6.14.74c-.5,0-2,.05-1.71-.78.13-.49.87-.92,1.25-1.18.95-.65,2-1.14,2.93-1.8a5.09,5.09,0,0,0,2.08-5.62,7.1,7.1,0,0,0-2.1-2.94,68.78,68.78,0,0,0-7.34-6.94l-8.46-6.74c-2.54-2-5.05-4.1-7.57-6.15C267.62,107.38,265.8,106,264,104.61Z" transform="translate(-20.42 -21.63)" fill="#ed2f28"/>
    <path d="M318.57,96.72S324.91,92,323,84.78A21.63,21.63,0,0,0,321.91,82a45.74,45.74,0,0,0-3.16-6,27.89,27.89,0,0,0-7.29-7.44c-2.16-1.6-4.41-3.07-6.5-4.77-.29-.23-1.92-1.28-1.61-1.85s1.82.42,2.11.6l2.18,1c2.09.76,4.78,1.37,6.91.43a3.5,3.5,0,0,0,2-2.49c.5-2.36,2.31-20.23,2.1-18.73,0,0,0-4.35,1.38-3.53a6.44,6.44,0,0,1,.43,1.78c.73,6.87,3.2,32.56,3.2,32.57a13.17,13.17,0,0,0,.59,2.48,17.45,17.45,0,0,0,2.55,5.15,12.07,12.07,0,0,0,5.68,4.31A15.64,15.64,0,0,0,343.14,85l.62-.24c2.31-.88,4.61-1.8,6.87-2.78s4.45-2.18,6.7-3.21c.74-.33,1.46-.69,2.18-1L369,73a10.38,10.38,0,0,1,1.8-.63c.35-.09,1.66-.48,1.29.3a5.57,5.57,0,0,1-2.14,2c-1,.67-2,1.36-3.05,2L360.35,81l-1.19.77c-2,1.32-4,2.64-6,4.06-1,.71-1.94,1.46-2.87,2.24s-1.7,1.6-2.56,2.41L346,92.13l0,0a2.29,2.29,0,0,0-.86,2.37c.71,1.67,3.64,1.7,5.13,1.71,3.14,0,6.26.08,9.4.14l8.95.17,9.57.17,8.35.16,5.24.1h.89s4.05.4-.11,1.07c-3,.48-37.95.71-46.12,2.87-7.14,1.88-7.73,3.89-5.35,8.72.17.35.43.66.61,1s.53,1,.81,1.44c.58,1,1.19,1.92,1.83,2.84,1.29,1.86,2.69,3.64,4.11,5.39,2.59,3.22,5.24,6.39,7.88,9.57,0,0,2,2.58,3.13,4.05.22.27,1.91,2.57-1,1a10.93,10.93,0,0,1-1.54-1.08c-.91-.71-1.84-1.36-2.72-2.08q-2.83-2.32-5.61-4.7c-3.71-3.17-7.38-6.39-11.13-9.51-3.58-3-7.24-6-11.1-8.59a19.91,19.91,0,0,0-6.09-2.83,11.9,11.9,0,0,0-6.74-.09c-4.49,1.56-7.74,5.79-10.48,9.44a23,23,0,0,1-2.28,3l-2.33,3.12c-1.49,2-2.9,4-4.49,6-1.4,1.62-1.71.7-.83-.74,2.1-3.47,4.58-8.32,1.06-11.76a9.15,9.15,0,0,0-2.69-1.72c-3.72-1.69-7.65-1.56-11.61-2.09l-4.27-.51c-5.91-.71-7.26-2.29-3.75-1.9,0,0,6.18.87,9.37,1.1a41.77,41.77,0,0,0,22.47-3.87C315.06,100.59,318.57,96.72,318.57,96.72Z" transform="translate(-20.42 -21.63)" fill="#fff"/>
    <ellipse cx="331.49" cy="95.38" rx="6.36" ry="6.22" transform="translate(-20.68 -20.73) rotate(-0.16)" fill="#0d5c75"/>
    <g>
      <path d="M441.67,81.64a18.77,18.77,0,0,1,0-37.54c5.17,0,9.87,2.11,14.05,6.29l-2.35,2.35c-3.57-3.61-7.42-5.31-11.7-5.31a15.44,15.44,0,1,0,0,30.87c4.28,0,8.13-1.69,11.7-5.31l2.35,2.35C451.54,79.52,446.84,81.64,441.67,81.64Z" transform="translate(-20.42 -21.63)" fill="#0d5c75" stroke="#0d5c75" stroke-miterlimit="10" stroke-width="0.48"/>
      <path d="M479.17,81.64a18.77,18.77,0,0,1,0-37.54c5.17,0,9.87,2.11,14.05,6.29l-2.35,2.35c-3.57-3.61-7.42-5.31-11.7-5.31a15.44,15.44,0,1,0,0,30.87c4.28,0,8.13-1.69,11.7-5.31l2.35,2.35C489,79.52,484.34,81.64,479.17,81.64Z" transform="translate(-20.42 -21.63)" fill="#0d5c75" stroke="#0d5c75" stroke-miterlimit="10" stroke-width="0.48"/>
      <path d="M504.18,53.12V81.07h-3.34v-37l24.29,28.52v-28h3.34v37Z" transform="translate(-20.42 -21.63)" fill="#0d5c75" stroke="#0d5c75" stroke-miterlimit="10" stroke-width="0.48"/>
      <path d="M552.06,81.64l-16.59-37h3.67L552.06,73.6l13-28.94h3.61Z" transform="translate(-20.42 -21.63)" fill="#0d5c75" stroke="#0d5c75" stroke-miterlimit="10" stroke-width="0.48"/>
    </g>
    <g>
      <path d="M104,82.13a18.77,18.77,0,0,1,0-37.54c5.17,0,9.87,2.12,14.05,6.3l-2.35,2.35c-3.57-3.62-7.42-5.31-11.7-5.31a15.43,15.43,0,1,0,0,30.86c4.28,0,8.13-1.69,11.7-5.3L118,75.83C113.86,80,109.16,82.13,104,82.13Z" transform="translate(-20.42 -21.63)" fill="#0d5c75" stroke="#0d5c75" stroke-miterlimit="10" stroke-width="0.48"/>
      <path d="M141.49,82.13a18.77,18.77,0,0,1,0-37.54c5.17,0,9.87,2.12,14,6.3l-2.35,2.35c-3.57-3.62-7.42-5.31-11.7-5.31a15.43,15.43,0,1,0,0,30.86c4.28,0,8.13-1.69,11.7-5.3l2.35,2.34C151.36,80,146.66,82.13,141.49,82.13Z" transform="translate(-20.42 -21.63)" fill="#0d5c75" stroke="#0d5c75" stroke-miterlimit="10" stroke-width="0.48"/>
      <path d="M166.49,53.61v28h-3.33v-37l24.28,28.52V45.16h3.34v37Z" transform="translate(-20.42 -21.63)" fill="#0d5c75" stroke="#0d5c75" stroke-miterlimit="10" stroke-width="0.48"/>
      <path d="M227.34,81.57,220.9,67.24H207.84l-6.39,14.33h-3.66l16.58-37,16.59,37Zm-13-28.94-5,11.27h10.11Z" transform="translate(-20.42 -21.63)" fill="#0d5c75" stroke="#0d5c75" stroke-miterlimit="10" stroke-width="0.48"/>
    </g>
  </g>
</svg>
